<svg width="140" height="25" viewBox="0 0 140 25" fill="none" xmlns="http://www.w3.org/2000/svg">
<rect width="89.8893" height="24.797" fill="#55E8BC"/>
<path d="M17.5277 16.2768L19.8444 4.94177H22.4403L18.9653 20H16.4625L13.5977 9.00625L10.6708 20H8.15769L4.68272 4.94177H7.27861L9.61594 16.2561L12.4911 4.94177H14.6836L17.5277 16.2768ZM33.1548 13.2776H26.9701V17.9109H34.1993V20H24.3536V4.94177H34.1269V7.05157H26.9701V11.2091H33.1548V13.2776ZM39.0912 20H36.485V4.94177H39.0912V20ZM46.9409 14.6117H41.5113V12.5846H46.9409V14.6117ZM60.1376 7.05157H55.4422V20H52.8463V7.05157H48.1923V4.94177H60.1376V7.05157ZM69.8282 16.1217C69.8282 15.4598 69.5938 14.9496 69.1249 14.591C68.663 14.2325 67.8253 13.8705 66.6118 13.5051C65.3983 13.1397 64.433 12.7329 63.716 12.2847C62.3439 11.4229 61.6579 10.299 61.6579 8.91317C61.6579 7.69969 62.1508 6.69994 63.1368 5.91393C64.1296 5.12793 65.4155 4.73492 66.9944 4.73492C68.0424 4.73492 68.9767 4.92798 69.7972 5.31409C70.6176 5.70019 71.2623 6.25178 71.7312 6.96884C72.2 7.679 72.4344 8.46845 72.4344 9.3372H69.8282C69.8282 8.55119 69.58 7.93756 69.0836 7.49629C68.594 7.04813 67.8908 6.82405 66.9737 6.82405C66.1188 6.82405 65.4534 7.00676 64.9777 7.37218C64.5089 7.73761 64.2744 8.24782 64.2744 8.90283C64.2744 9.45441 64.5295 9.91636 65.0398 10.2887C65.55 10.6541 66.3911 11.0126 67.5632 11.3643C68.7354 11.709 69.6765 12.1055 70.3867 12.5536C71.0968 12.9949 71.6174 13.5051 71.9483 14.0843C72.2793 14.6565 72.4448 15.3288 72.4448 16.101C72.4448 17.3558 71.9621 18.3556 70.9969 19.1002C70.0385 19.838 68.7354 20.2068 67.0875 20.2068C65.9981 20.2068 64.9949 20.0069 64.0779 19.607C63.1678 19.2002 62.4577 18.6417 61.9474 17.9316C61.4441 17.2214 61.1925 16.394 61.1925 15.4494H63.809C63.809 16.3044 64.0917 16.9663 64.6571 17.4351C65.2225 17.904 66.0326 18.1384 67.0875 18.1384C67.9976 18.1384 68.6802 17.9557 69.1353 17.5903C69.5972 17.218 69.8282 16.7284 69.8282 16.1217ZM83.5419 13.2776H77.3573V17.9109H84.5865V20H74.7407V4.94177H84.5141V7.05157H77.3573V11.2091H83.5419V13.2776Z" fill="#1A1A1A"/>
<rect x="89.8893" width="50.1107" height="24.797" fill="#1A1A1A"/>
<path d="M103.527 16.1217C103.527 15.4598 103.292 14.9496 102.824 14.591C102.362 14.2325 101.524 13.8705 100.31 13.5051C99.097 13.1397 98.1317 12.7329 97.4146 12.2847C96.0426 11.4229 95.3566 10.299 95.3566 8.91317C95.3566 7.69969 95.8495 6.69994 96.8355 5.91393C97.8283 5.12793 99.1142 4.73492 100.693 4.73492C101.741 4.73492 102.675 4.92798 103.496 5.31409C104.316 5.70019 104.961 6.25178 105.43 6.96884C105.899 7.679 106.133 8.46845 106.133 9.3372H103.527C103.527 8.55119 103.279 7.93756 102.782 7.49629C102.293 7.04813 101.589 6.82405 100.672 6.82405C99.8175 6.82405 99.1521 7.00676 98.6764 7.37218C98.2076 7.73761 97.9731 8.24782 97.9731 8.90283C97.9731 9.45441 98.2282 9.91636 98.7384 10.2887C99.2487 10.6541 100.09 11.0126 101.262 11.3643C102.434 11.709 103.375 12.1055 104.085 12.5536C104.796 12.9949 105.316 13.5051 105.647 14.0843C105.978 14.6565 106.143 15.3288 106.143 16.101C106.143 17.3558 105.661 18.3556 104.696 19.1002C103.737 19.838 102.434 20.2068 100.786 20.2068C99.6968 20.2068 98.6936 20.0069 97.7766 19.607C96.8665 19.2002 96.1563 18.6417 95.6461 17.9316C95.1428 17.2214 94.8912 16.394 94.8912 15.4494H97.5077C97.5077 16.3044 97.7904 16.9663 98.3558 17.4351C98.9212 17.904 99.7313 18.1384 100.786 18.1384C101.696 18.1384 102.379 17.9557 102.834 17.5903C103.296 17.218 103.527 16.7284 103.527 16.1217ZM119.454 4.94177V15.0047C119.454 16.6043 118.94 17.873 117.913 18.8106C116.892 19.7414 115.531 20.2068 113.828 20.2068C112.104 20.2068 110.735 19.7483 109.722 18.8313C108.708 17.9074 108.202 16.6284 108.202 14.9944V4.94177H110.808V15.0151C110.808 16.0217 111.063 16.7905 111.573 17.3214C112.083 17.8523 112.835 18.1177 113.828 18.1177C115.841 18.1177 116.848 17.0559 116.848 14.9323V4.94177H119.454ZM134.202 20H131.585L124.873 9.31651V20H122.257V4.94177H124.873L131.606 15.6666V4.94177H134.202V20Z" fill="#55E8BC"/>
</svg>
